<svg width="320" height="200" viewBox="0 0 320 200" fill="none" xmlns="http://www.w3.org/2000/svg">
  <defs>
    <linearGradient id="bg" x1="0" y1="0" x2="320" y2="200" gradientUnits="userSpaceOnUse">
      <stop stop-color="#0B3A4D"/>
      <stop offset="1" stop-color="#061017"/>
    </linearGradient>
    <linearGradient id="drop" x1="160" y1="44" x2="160" y2="152" gradientUnits="userSpaceOnUse">
      <stop stop-color="#8DE7FF"/>
      <stop offset="1" stop-color="#2F8FB5"/>
    </linearGradient>
  </defs>
  <rect width="320" height="200" rx="26" fill="url(#bg)"/>
  <circle cx="63" cy="50" r="30" fill="#8DE7FF" fill-opacity="0.18"/>
  <circle cx="265" cy="150" r="36" fill="#8DE7FF" fill-opacity="0.12"/>
  <path d="M160 45C146 64 122 95 122 117C122 140 139 156 160 156C181 156 198 140 198 117C198 95 174 64 160 45Z" fill="url(#drop)"/>
  <path d="M160 68C151 82 136 102 136 118C136 132 147 143 160 143" stroke="#DDF8FF" stroke-width="4" stroke-linecap="round"/>
  <text x="26" y="168" fill="#CEF4FF" font-family="monospace" font-size="24" font-weight="700">DIESEL</text>
</svg>
